<svg width="18" height="19" viewBox="0 0 18 19" fill="none" xmlns="http://www.w3.org/2000/svg">
<path fill-rule="evenodd" clip-rule="evenodd" d="M4.00008 0.0915454C6.20903 0.120462 7.99974 1.93476 7.99974 4.1439C7.99974 6.35304 6.20903 8.12046 4.00008 8.09155C1.79113 8.06263 0.000427054 6.24833 0.000427054 4.03919C0.000427054 1.83005 1.79113 0.0626286 4.00008 0.0915454ZM3.99984 2.09151C2.89536 2.07705 2.00001 2.96076 2.00001 4.06533C2.00001 5.1699 2.89536 6.07705 3.99984 6.09151C5.10431 6.10597 5.99967 5.22226 5.99967 4.11769C5.99967 3.01312 5.10431 2.10597 3.99984 2.09151ZM13.9991 0.22244C16.2081 0.251357 17.9988 2.06566 17.9988 4.2748C17.9988 6.48394 16.2081 8.25136 13.9991 8.22244C11.7902 8.19352 9.99947 6.37922 9.99947 4.17008C9.99947 1.96094 11.7902 0.193523 13.9991 0.22244ZM13.9994 2.22241C12.895 2.20796 11.9996 3.09167 11.9996 4.19624C11.9996 5.3008 12.895 6.20796 13.9994 6.22241C15.1039 6.23687 15.9993 5.35316 15.9993 4.24859C15.9993 3.14402 15.1039 2.23687 13.9994 2.22241ZM7.99956 14.144C7.99956 11.9349 6.20885 10.1206 3.9999 10.0917C1.79095 10.0628 0.000244141 11.8302 0.000244141 14.0393C0.000244141 16.2485 1.79095 18.0628 3.9999 18.0917C6.20885 18.1206 7.99956 16.3532 7.99956 14.144ZM1.99982 14.0655C1.99982 12.9609 2.89518 12.0772 3.99965 12.0916C5.10413 12.1061 5.99948 13.0133 5.99948 14.1178C5.99948 15.2224 5.10413 16.1061 3.99965 16.0916C2.89518 16.0772 1.99982 15.17 1.99982 14.0655ZM13.9989 10.2226C16.2079 10.2515 17.9986 12.0658 17.9986 14.2749C17.9986 16.4841 16.2079 18.2515 13.9989 18.2226C11.79 18.1937 9.99928 16.3794 9.99928 14.1702C9.99928 11.9611 11.79 10.1937 13.9989 10.2226ZM13.9993 12.2225C12.8948 12.2081 11.9994 13.0918 11.9994 14.1964C11.9994 15.3009 12.8948 16.2081 13.9993 16.2225C15.1037 16.237 15.9991 15.3533 15.9991 14.2487C15.9991 13.1442 15.1037 12.237 13.9993 12.2225Z" fill="#1B1C31"/>
</svg>
